<svg width="1372" height="1030" viewBox="0 0 1372 1030" fill="none" xmlns="http://www.w3.org/2000/svg">
<rect width="972.448" height="630" transform="translate(200 200)" fill="black"/>
<g filter="url(#filter0_f_1_7)">
<ellipse cx="686" cy="515" rx="486" ry="315" fill="#D9D9D9" fill-opacity="0.1"/>
</g>
<g filter="url(#filter1_f_1_7)">
<ellipse cx="687" cy="428" rx="100" ry="101" fill="#22C55E"/>
</g>
<g filter="url(#filter2_f_1_7)">
<ellipse cx="587" cy="602" rx="101" ry="100" fill="#3B82F6"/>
</g>
<g filter="url(#filter3_f_1_7)">
<circle cx="788" cy="602" r="100" fill="#EF4444"/>
</g>
<path d="M525.068 550V480.182H552.614C557.909 480.182 562.42 481.193 566.148 483.216C569.875 485.216 572.716 488 574.67 491.568C576.648 495.114 577.636 499.205 577.636 503.841C577.636 508.477 576.636 512.568 574.636 516.114C572.636 519.659 569.739 522.42 565.943 524.398C562.17 526.375 557.602 527.364 552.239 527.364H534.682V515.534H549.852C552.693 515.534 555.034 515.045 556.875 514.068C558.739 513.068 560.125 511.693 561.034 509.943C561.966 508.17 562.432 506.136 562.432 503.841C562.432 501.523 561.966 499.5 561.034 497.773C560.125 496.023 558.739 494.67 556.875 493.716C555.011 492.739 552.648 492.25 549.784 492.25H539.83V550H525.068ZM600.477 550.989C597.136 550.989 594.159 550.409 591.545 549.25C588.932 548.068 586.864 546.33 585.341 544.034C583.841 541.716 583.091 538.83 583.091 535.375C583.091 532.466 583.625 530.023 584.693 528.045C585.761 526.068 587.216 524.477 589.057 523.273C590.898 522.068 592.989 521.159 595.33 520.545C597.693 519.932 600.17 519.5 602.761 519.25C605.807 518.932 608.261 518.636 610.125 518.364C611.989 518.068 613.341 517.636 614.182 517.068C615.023 516.5 615.443 515.659 615.443 514.545V514.341C615.443 512.182 614.761 510.511 613.398 509.33C612.057 508.148 610.148 507.557 607.67 507.557C605.057 507.557 602.977 508.136 601.432 509.295C599.886 510.432 598.864 511.864 598.364 513.591L584.932 512.5C585.614 509.318 586.955 506.568 588.955 504.25C590.955 501.909 593.534 500.114 596.693 498.864C599.875 497.591 603.557 496.955 607.739 496.955C610.648 496.955 613.432 497.295 616.091 497.977C618.773 498.659 621.148 499.716 623.216 501.148C625.307 502.58 626.955 504.42 628.159 506.67C629.364 508.898 629.966 511.568 629.966 514.682V550H616.193V542.739H615.784C614.943 544.375 613.818 545.818 612.409 547.068C611 548.295 609.307 549.261 607.33 549.966C605.352 550.648 603.068 550.989 600.477 550.989ZM604.636 540.966C606.773 540.966 608.659 540.545 610.295 539.705C611.932 538.841 613.216 537.682 614.148 536.227C615.08 534.773 615.545 533.125 615.545 531.284V525.727C615.091 526.023 614.466 526.295 613.67 526.545C612.898 526.773 612.023 526.989 611.045 527.193C610.068 527.375 609.091 527.545 608.114 527.705C607.136 527.841 606.25 527.966 605.455 528.08C603.75 528.33 602.261 528.727 600.989 529.273C599.716 529.818 598.727 530.557 598.023 531.489C597.318 532.398 596.966 533.534 596.966 534.898C596.966 536.875 597.682 538.386 599.114 539.432C600.568 540.455 602.409 540.966 604.636 540.966ZM641.233 550V497.636H655.312V506.773H655.858C656.813 503.523 658.415 501.068 660.665 499.409C662.915 497.727 665.506 496.886 668.438 496.886C669.165 496.886 669.949 496.932 670.79 497.023C671.631 497.114 672.369 497.239 673.006 497.398V510.284C672.324 510.08 671.381 509.898 670.176 509.739C668.972 509.58 667.869 509.5 666.869 509.5C664.733 509.5 662.824 509.966 661.142 510.898C659.483 511.807 658.165 513.08 657.188 514.716C656.233 516.352 655.756 518.239 655.756 520.375V550H641.233ZM710.991 497.636V508.545H679.457V497.636H710.991ZM686.616 485.091H701.139V533.909C701.139 535.25 701.344 536.295 701.753 537.045C702.162 537.773 702.73 538.284 703.457 538.58C704.207 538.875 705.071 539.023 706.048 539.023C706.73 539.023 707.412 538.966 708.094 538.852C708.776 538.716 709.298 538.614 709.662 538.545L711.946 549.352C711.219 549.58 710.196 549.841 708.878 550.136C707.56 550.455 705.957 550.648 704.071 550.716C700.571 550.852 697.503 550.386 694.866 549.318C692.253 548.25 690.219 546.591 688.764 544.341C687.31 542.091 686.594 539.25 686.616 535.818V485.091ZM729.418 569.636C727.577 569.636 725.849 569.489 724.236 569.193C722.645 568.92 721.327 568.568 720.281 568.136L723.554 557.295C725.259 557.818 726.793 558.102 728.156 558.148C729.543 558.193 730.736 557.875 731.736 557.193C732.759 556.511 733.588 555.352 734.224 553.716L735.077 551.5L716.293 497.636H731.565L742.406 536.091H742.952L753.895 497.636H769.27L748.918 555.659C747.94 558.477 746.611 560.932 744.929 563.023C743.27 565.136 741.168 566.761 738.622 567.898C736.077 569.057 733.009 569.636 729.418 569.636ZM799.193 550V480.182H827.148C832.284 480.182 836.568 480.943 840 482.466C843.432 483.989 846.011 486.102 847.739 488.807C849.466 491.489 850.33 494.58 850.33 498.08C850.33 500.807 849.784 503.205 848.693 505.273C847.602 507.318 846.102 509 844.193 510.318C842.307 511.614 840.148 512.534 837.716 513.08V513.761C840.375 513.875 842.864 514.625 845.182 516.011C847.523 517.398 849.42 519.341 850.875 521.841C852.33 524.318 853.057 527.273 853.057 530.705C853.057 534.409 852.136 537.716 850.295 540.625C848.477 543.511 845.784 545.795 842.216 547.477C838.648 549.159 834.25 550 829.023 550H799.193ZM813.955 537.932H825.989C830.102 537.932 833.102 537.148 834.989 535.58C836.875 533.989 837.818 531.875 837.818 529.239C837.818 527.307 837.352 525.602 836.42 524.125C835.489 522.648 834.159 521.489 832.432 520.648C830.727 519.807 828.693 519.386 826.33 519.386H813.955V537.932ZM813.955 509.398H824.898C826.92 509.398 828.716 509.045 830.284 508.341C831.875 507.614 833.125 506.591 834.034 505.273C834.966 503.955 835.432 502.375 835.432 500.534C835.432 498.011 834.534 495.977 832.739 494.432C830.966 492.886 828.443 492.114 825.17 492.114H813.955V509.398ZM886.048 551.023C880.753 551.023 876.173 549.898 872.31 547.648C868.469 545.375 865.503 542.216 863.412 538.17C861.321 534.102 860.276 529.386 860.276 524.023C860.276 518.614 861.321 513.886 863.412 509.841C865.503 505.773 868.469 502.614 872.31 500.364C876.173 498.091 880.753 496.955 886.048 496.955C891.344 496.955 895.912 498.091 899.753 500.364C903.616 502.614 906.594 505.773 908.685 509.841C910.776 513.886 911.821 518.614 911.821 524.023C911.821 529.386 910.776 534.102 908.685 538.17C906.594 542.216 903.616 545.375 899.753 547.648C895.912 549.898 891.344 551.023 886.048 551.023ZM886.116 539.773C888.526 539.773 890.537 539.091 892.151 537.727C893.764 536.341 894.98 534.455 895.798 532.068C896.639 529.682 897.06 526.966 897.06 523.92C897.06 520.875 896.639 518.159 895.798 515.773C894.98 513.386 893.764 511.5 892.151 510.114C890.537 508.727 888.526 508.034 886.116 508.034C883.685 508.034 881.639 508.727 879.98 510.114C878.344 511.5 877.105 513.386 876.264 515.773C875.446 518.159 875.037 520.875 875.037 523.92C875.037 526.966 875.446 529.682 876.264 532.068C877.105 534.455 878.344 536.341 879.98 537.727C881.639 539.091 883.685 539.773 886.116 539.773ZM931.526 497.636L941.139 515.943L950.991 497.636H965.889L950.719 523.818L966.298 550H951.469L941.139 531.898L930.98 550H915.98L931.526 523.818L916.526 497.636H931.526Z" fill="white"/>
<path d="M468.625 500.438L440.5 484.031L412.375 500.438M468.625 500.438L440.5 516.844M468.625 500.438V528.562L440.5 544.969M412.375 500.438L440.5 516.844M412.375 500.438V528.562L440.5 544.969M440.5 516.844V544.969" stroke="white" stroke-width="1.5" stroke-linecap="round" stroke-linejoin="round"/>
<defs>
<filter id="filter0_f_1_7" x="0" y="0" width="1372" height="1030" filterUnits="userSpaceOnUse" color-interpolation-filters="sRGB">
<feFlood flood-opacity="0" result="BackgroundImageFix"/>
<feBlend mode="normal" in="SourceGraphic" in2="BackgroundImageFix" result="shape"/>
<feGaussianBlur stdDeviation="100" result="effect1_foregroundBlur_1_7"/>
</filter>
<filter id="filter1_f_1_7" x="387" y="127" width="600" height="602" filterUnits="userSpaceOnUse" color-interpolation-filters="sRGB">
<feFlood flood-opacity="0" result="BackgroundImageFix"/>
<feBlend mode="normal" in="SourceGraphic" in2="BackgroundImageFix" result="shape"/>
<feGaussianBlur stdDeviation="100" result="effect1_foregroundBlur_1_7"/>
</filter>
<filter id="filter2_f_1_7" x="286" y="302" width="602" height="600" filterUnits="userSpaceOnUse" color-interpolation-filters="sRGB">
<feFlood flood-opacity="0" result="BackgroundImageFix"/>
<feBlend mode="normal" in="SourceGraphic" in2="BackgroundImageFix" result="shape"/>
<feGaussianBlur stdDeviation="100" result="effect1_foregroundBlur_1_7"/>
</filter>
<filter id="filter3_f_1_7" x="488" y="302" width="600" height="600" filterUnits="userSpaceOnUse" color-interpolation-filters="sRGB">
<feFlood flood-opacity="0" result="BackgroundImageFix"/>
<feBlend mode="normal" in="SourceGraphic" in2="BackgroundImageFix" result="shape"/>
<feGaussianBlur stdDeviation="100" result="effect1_foregroundBlur_1_7"/>
</filter>
</defs>
</svg>
