<svg width="642" height="527" viewBox="0 0 642 527" fill="none" xmlns="http://www.w3.org/2000/svg">
<path d="M306.5 144.5C276.958 5.17796 120.506 45.1322 110 76.5C99.6493 84.8484 159.659 166.713 241 164L224.5 181.5C74.5897 109.688 9.74783 280.704 33.5 317.5C28.7173 330.467 121.587 322.455 183.5 245L177.5 274.5C27.5675 343.038 93.0063 491.22 123 492.5C179.571 468.534 183.414 430.081 192.5 363.5C296.094 477.936 355.465 481.382 464 363.5C466.729 444.082 483.261 469.43 529.5 492.5C603.519 393.734 570.799 349.041 476.5 274.5L474 243C534.225 315.461 593.619 335.001 625.5 311C625.5 311 582.708 93.0837 432.5 179L412 164C507.753 163.445 550.721 92.1832 540 76.5C534.439 49.2266 382.139 13.0335 341.5 144.5H306.5Z" fill="#FF924D" stroke="white" stroke-width="5"/>
<ellipse cx="393" cy="292.5" rx="32" ry="81.5" fill="white"/>
<ellipse cx="260" cy="292.5" rx="32" ry="81.5" fill="white"/>
</svg>
