<svg width="290" height="290" viewBox="0 0 290 290" fill="none" xmlns="http://www.w3.org/2000/svg">
<rect x="30" y="130" width="30" height="130" rx="10" transform="rotate(-180 30 130)" fill="white"/>
<rect y="30" width="30" height="130" rx="10" transform="rotate(-90 0 30)" fill="white"/>
<circle cx="74" cy="75" r="30" fill="white"/>
<rect x="160" y="30" width="30" height="130" rx="10" transform="rotate(-90 160 30)" fill="white"/>
<rect x="260" width="30" height="130" rx="10" fill="white"/>
<circle cx="216" cy="75" r="30" fill="white"/>
<rect x="130" y="260" width="30" height="130" rx="10" transform="rotate(90 130 260)" fill="white"/>
<rect x="30" y="290" width="30" height="130" rx="10" transform="rotate(-180 30 290)" fill="white"/>
<circle cx="74" cy="215" r="30" fill="white"/>
<rect x="260" y="160" width="30" height="130" rx="10" fill="white"/>
<rect x="290" y="260" width="30" height="130" rx="10" transform="rotate(90 290 260)" fill="white"/>
<circle cx="216" cy="215" r="30" fill="white"/>
</svg>
